<?xml version="1.0" encoding="us-ascii" standalone="no"?><svg xmlns="http://www.w3.org/2000/svg" xmlns:xlink="http://www.w3.org/1999/xlink" contentStyleType="text/css" height="433px" preserveAspectRatio="none" style="width:510px;height:433px;background:#FFFFFF;" version="1.1" viewBox="0 0 510 433" width="510px" zoomAndPan="magnify"><defs/><g><!--cluster memento_pattern--><g id="cluster_memento_pattern"><path d="M8.5,6 L154.5,6 A3.75,3.75 0 0 1 157,8.5 L164,28.2969 L500.5,28.2969 A2.5,2.5 0 0 1 503,30.7969 L503,423.5 A2.5,2.5 0 0 1 500.5,426 L8.5,426 A2.5,2.5 0 0 1 6,423.5 L6,8.5 A2.5,2.5 0 0 1 8.5,6 " fill="none" style="stroke:#000000;stroke-width:1.5;"/><line style="stroke:#000000;stroke-width:1.5;" x1="6" x2="164" y1="28.2969" y2="28.2969"/><text fill="#000000" font-family="sans-serif" font-size="14" font-weight="bold" lengthAdjust="spacing" textLength="145" x="10" y="20.9951">memento_pattern</text></g><!--cluster memento_pattern.dart--><g id="cluster_memento_pattern.dart"><path d="M32.5,49 L218.5,49 A3.75,3.75 0 0 1 221,51.5 L228,71.2969 L476.5,71.2969 A2.5,2.5 0 0 1 479,73.7969 L479,399.5 A2.5,2.5 0 0 1 476.5,402 L32.5,402 A2.5,2.5 0 0 1 30,399.5 L30,51.5 A2.5,2.5 0 0 1 32.5,49 " fill="none" style="stroke:#000000;stroke-width:1.5;"/><line style="stroke:#000000;stroke-width:1.5;" x1="30" x2="228" y1="71.2969" y2="71.2969"/><text fill="#000000" font-family="sans-serif" font-size="14" font-weight="bold" lengthAdjust="spacing" textLength="185" x="34" y="63.9951">memento_pattern.dart</text></g><!--class Editor--><g id="elem_Editor"><rect codeLine="3" fill="#F1F1F1" height="129.4844" id="Editor" rx="2.5" ry="2.5" style="stroke:#181818;stroke-width:0.5;" width="142" x="91" y="257"/><ellipse cx="135.75" cy="273" fill="#ADD1B2" rx="11" ry="11" style="stroke:#181818;stroke-width:1.0;"/><path d="M138.0938,268.6719 C137.1563,268.2344 136.5625,268.0938 135.6875,268.0938 C133.0625,268.0938 131.0625,270.1719 131.0625,272.8906 L131.0625,274.0156 C131.0625,276.5938 133.1719,278.4844 136.0625,278.4844 C137.2813,278.4844 138.4375,278.1875 139.1875,277.6406 C139.7656,277.2344 140.0938,276.7813 140.0938,276.3906 C140.0938,275.9375 139.7031,275.5469 139.2344,275.5469 C139.0156,275.5469 138.8125,275.625 138.625,275.8125 C138.1719,276.2969 138.1719,276.2969 137.9844,276.3906 C137.5625,276.6563 136.875,276.7813 136.1094,276.7813 C134.0625,276.7813 132.7656,275.6875 132.7656,273.9844 L132.7656,272.8906 C132.7656,271.1094 134.0156,269.7969 135.75,269.7969 C136.3281,269.7969 136.9375,269.9531 137.4063,270.2031 C137.8906,270.4844 138.0625,270.7031 138.1563,271.1094 C138.2188,271.5156 138.25,271.6406 138.3906,271.7656 C138.5313,271.9063 138.7656,272.0156 138.9844,272.0156 C139.25,272.0156 139.5156,271.875 139.6875,271.6563 C139.7969,271.5 139.8281,271.3125 139.8281,270.8906 L139.8281,269.4688 C139.8281,269.0313 139.8125,268.9063 139.7188,268.75 C139.5625,268.4844 139.2813,268.3438 138.9844,268.3438 C138.6875,268.3438 138.4844,268.4375 138.2656,268.75 L138.0938,268.6719 Z " fill="#000000"/><text fill="#000000" font-family="sans-serif" font-size="14" lengthAdjust="spacing" textLength="44" x="156.25" y="277.8467">Editor</text><line style="stroke:#181818;stroke-width:0.5;" x1="92" x2="232" y1="289" y2="289"/><rect fill="none" height="6" style="stroke:#C82930;stroke-width:1.0;" width="6" x="99" y="299.6484"/><text fill="#000000" font-family="sans-serif" font-size="14" lengthAdjust="spacing" textLength="86" x="111" y="305.9951">String _text</text><line style="stroke:#181818;stroke-width:0.5;" x1="92" x2="232" y1="313.2969" y2="313.2969"/><ellipse cx="102" cy="326.9453" fill="#84BE84" rx="3" ry="3" style="stroke:#038048;stroke-width:1.0;"/><text fill="#000000" font-family="sans-serif" font-size="14" lengthAdjust="spacing" textLength="81" x="111" y="330.292">void write()</text><ellipse cx="102" cy="343.2422" fill="#84BE84" rx="3" ry="3" style="stroke:#038048;stroke-width:1.0;"/><text fill="#000000" font-family="sans-serif" font-size="14" lengthAdjust="spacing" textLength="116" x="111" y="346.5889">String getText()</text><ellipse cx="102" cy="359.5391" fill="#84BE84" rx="3" ry="3" style="stroke:#038048;stroke-width:1.0;"/><text fill="#000000" font-family="sans-serif" font-size="14" lengthAdjust="spacing" textLength="115" x="111" y="362.8857">Memento save()</text><ellipse cx="102" cy="375.8359" fill="#84BE84" rx="3" ry="3" style="stroke:#038048;stroke-width:1.0;"/><text fill="#000000" font-family="sans-serif" font-size="14" lengthAdjust="spacing" textLength="97" x="111" y="379.1826">void restore()</text></g><!--class Memento--><g id="elem_Memento"><rect codeLine="11" fill="#F1F1F1" height="80.5938" id="Memento" rx="2.5" ry="2.5" style="stroke:#181818;stroke-width:0.5;" width="149" x="313.5" y="100"/><ellipse cx="350.1" cy="116" fill="#ADD1B2" rx="11" ry="11" style="stroke:#181818;stroke-width:1.0;"/><path d="M352.4438,111.6719 C351.5063,111.2344 350.9125,111.0938 350.0375,111.0938 C347.4125,111.0938 345.4125,113.1719 345.4125,115.8906 L345.4125,117.0156 C345.4125,119.5938 347.5219,121.4844 350.4125,121.4844 C351.6313,121.4844 352.7875,121.1875 353.5375,120.6406 C354.1156,120.2344 354.4438,119.7813 354.4438,119.3906 C354.4438,118.9375 354.0531,118.5469 353.5844,118.5469 C353.3656,118.5469 353.1625,118.625 352.975,118.8125 C352.5219,119.2969 352.5219,119.2969 352.3344,119.3906 C351.9125,119.6563 351.225,119.7813 350.4594,119.7813 C348.4125,119.7813 347.1156,118.6875 347.1156,116.9844 L347.1156,115.8906 C347.1156,114.1094 348.3656,112.7969 350.1,112.7969 C350.6781,112.7969 351.2875,112.9531 351.7563,113.2031 C352.2406,113.4844 352.4125,113.7031 352.5063,114.1094 C352.5688,114.5156 352.6,114.6406 352.7406,114.7656 C352.8813,114.9063 353.1156,115.0156 353.3344,115.0156 C353.6,115.0156 353.8656,114.875 354.0375,114.6563 C354.1469,114.5 354.1781,114.3125 354.1781,113.8906 L354.1781,112.4688 C354.1781,112.0313 354.1625,111.9063 354.0688,111.75 C353.9125,111.4844 353.6313,111.3438 353.3344,111.3438 C353.0375,111.3438 352.8344,111.4375 352.6156,111.75 L352.4438,111.6719 Z " fill="#000000"/><text fill="#000000" font-family="sans-serif" font-size="14" lengthAdjust="spacing" textLength="69" x="368.9" y="120.8467">Memento</text><line style="stroke:#181818;stroke-width:0.5;" x1="314.5" x2="461.5" y1="132" y2="132"/><rect fill="none" height="6" style="stroke:#C82930;stroke-width:1.0;" width="6" x="321.5" y="142.6484"/><text fill="#000000" font-family="sans-serif" font-size="14" lengthAdjust="spacing" textLength="93" x="333.5" y="148.9951">String _state</text><line style="stroke:#181818;stroke-width:0.5;" x1="314.5" x2="461.5" y1="156.2969" y2="156.2969"/><ellipse cx="324.5" cy="169.9453" fill="#84BE84" rx="3" ry="3" style="stroke:#038048;stroke-width:1.0;"/><text fill="#000000" font-family="sans-serif" font-size="14" lengthAdjust="spacing" textLength="123" x="333.5" y="173.292">String getState()</text></g><!--class Caretaker--><g id="elem_Caretaker"><rect codeLine="16" fill="#F1F1F1" height="113.1875" id="Caretaker" rx="2.5" ry="2.5" style="stroke:#181818;stroke-width:0.5;" width="232" x="46" y="84"/><ellipse cx="121.75" cy="100" fill="#ADD1B2" rx="11" ry="11" style="stroke:#181818;stroke-width:1.0;"/><path d="M124.0938,95.6719 C123.1563,95.2344 122.5625,95.0938 121.6875,95.0938 C119.0625,95.0938 117.0625,97.1719 117.0625,99.8906 L117.0625,101.0156 C117.0625,103.5938 119.1719,105.4844 122.0625,105.4844 C123.2813,105.4844 124.4375,105.1875 125.1875,104.6406 C125.7656,104.2344 126.0938,103.7813 126.0938,103.3906 C126.0938,102.9375 125.7031,102.5469 125.2344,102.5469 C125.0156,102.5469 124.8125,102.625 124.625,102.8125 C124.1719,103.2969 124.1719,103.2969 123.9844,103.3906 C123.5625,103.6563 122.875,103.7813 122.1094,103.7813 C120.0625,103.7813 118.7656,102.6875 118.7656,100.9844 L118.7656,99.8906 C118.7656,98.1094 120.0156,96.7969 121.75,96.7969 C122.3281,96.7969 122.9375,96.9531 123.4063,97.2031 C123.8906,97.4844 124.0625,97.7031 124.1563,98.1094 C124.2188,98.5156 124.25,98.6406 124.3906,98.7656 C124.5313,98.9063 124.7656,99.0156 124.9844,99.0156 C125.25,99.0156 125.5156,98.875 125.6875,98.6563 C125.7969,98.5 125.8281,98.3125 125.8281,97.8906 L125.8281,96.4688 C125.8281,96.0313 125.8125,95.9063 125.7188,95.75 C125.5625,95.4844 125.2813,95.3438 124.9844,95.3438 C124.6875,95.3438 124.4844,95.4375 124.2656,95.75 L124.0938,95.6719 Z " fill="#000000"/><text fill="#000000" font-family="sans-serif" font-size="14" lengthAdjust="spacing" textLength="72" x="142.25" y="104.8467">Caretaker</text><line style="stroke:#181818;stroke-width:0.5;" x1="47" x2="277" y1="116" y2="116"/><rect fill="none" height="6" style="stroke:#C82930;stroke-width:1.0;" width="6" x="54" y="126.6484"/><text fill="#000000" font-family="sans-serif" font-size="14" lengthAdjust="spacing" textLength="206" x="66" y="132.9951">List&lt;Memento&gt; _mementos</text><rect fill="none" height="6" style="stroke:#C82930;stroke-width:1.0;" width="6" x="54" y="142.9453"/><text fill="#000000" font-family="sans-serif" font-size="14" lengthAdjust="spacing" textLength="99" x="66" y="149.292">Editor _editor</text><line style="stroke:#181818;stroke-width:0.5;" x1="47" x2="277" y1="156.5938" y2="156.5938"/><ellipse cx="57" cy="170.2422" fill="#84BE84" rx="3" ry="3" style="stroke:#038048;stroke-width:1.0;"/><text fill="#000000" font-family="sans-serif" font-size="14" lengthAdjust="spacing" textLength="76" x="66" y="173.5889">void save()</text><ellipse cx="57" cy="186.5391" fill="#84BE84" rx="3" ry="3" style="stroke:#038048;stroke-width:1.0;"/><text fill="#000000" font-family="sans-serif" font-size="14" lengthAdjust="spacing" textLength="79" x="66" y="189.8857">void undo()</text></g><!--reverse link Caretaker to Editor--><g id="link_Caretaker_Editor"><path codeLine="23" d="M162,210.305 C162,225.573 162,241.69 162,256.745 " fill="none" id="Caretaker-backto-Editor" style="stroke:#181818;stroke-width:1.0;"/><polygon fill="none" points="162,197.156,158,203.156,162,209.156,166,203.156,162,197.156" style="stroke:#181818;stroke-width:1.0;"/></g><!--SRC=[dL712i8m3BtlAy9EYimFAE95lEbftalOmYYwTZHn2kA_swrLSBVjLFAIz_9UoYHWiINkiAAIElGepeDIMLRTa1dobbgoudI78kIjKXDWMwCNfOwr2SGSNXb0KOetjW4jz9HGRtfdQdXu8xHQ3tNgDoINC16nSvG5nZvDZInF77G7v3tNKbASU691eNyJvG0jsN10Ju9N-kO-6PPTMhi7dKWyjE9zGDFu_k9DqjvjxQAH1HPSKSpzhWy0]--></g></svg>